<svg xmlns="http://www.w3.org/2000/svg" width="81" height="78" viewBox="0 0 81 78" fill="none">
    <path fill-rule="evenodd" clip-rule="evenodd"
        d="M63.6909 0.81108C63.5834 0.9843 63.7626 1.65982 64.089 2.31244C64.6063 3.34655 64.8499 3.49859 65.9876 3.49859C66.7054 3.49859 67.2924 3.61558 67.2924 3.75894C67.292 3.90231 67.4597 4.01929 67.6646 4.01929C67.8699 4.01929 68.3003 4.28138 68.6215 4.60213C69.1684 5.14748 69.2129 5.14644 69.3208 4.58755C69.4711 3.80928 70.6562 4.15363 71.7114 5.28251C72.1328 5.73344 72.701 6.1021 72.9737 6.1021C73.2465 6.1021 73.6644 6.33641 73.9027 6.6228C74.4594 7.29207 75.2944 7.2952 75.2944 6.62801C75.2944 6.33398 75.9666 6.80262 76.8601 7.71974C78.4655 9.36759 78.8263 10.0521 77.9039 9.6991C77.5417 9.56025 77.382 9.72305 77.382 10.2306C77.382 10.6329 77.1941 10.962 76.9645 10.962C76.6399 10.962 76.6399 11.0547 76.9645 11.3785C77.1941 11.6076 77.382 12.0294 77.382 12.3158C77.382 12.7209 77.2891 12.7438 76.9645 12.4199C76.3768 11.8336 75.2944 11.9013 75.2944 12.5241C75.2944 12.8105 75.1427 13.0448 74.9573 13.0448C74.7722 13.0448 74.7089 12.815 74.8171 12.5338C74.9249 12.2526 74.8073 11.558 74.5554 10.9901C73.973 9.67758 72.5719 9.25338 71.8224 10.1625C71.3117 10.7818 71.2713 10.7822 70.6718 10.1764C70.3298 9.83067 70.1433 9.39744 70.2574 9.21381C70.6196 8.62854 69.6962 8.85348 68.7787 9.57344C68.292 9.95529 67.7586 10.2677 67.593 10.2677C67.4274 10.2677 67.292 9.95529 67.292 9.57344C67.292 8.98192 67.0599 8.87917 65.7263 8.87917C64.8652 8.87917 64.1606 8.99789 64.1606 9.14265C64.1606 9.28775 63.8311 9.61162 63.4282 9.8626C62.8942 10.1955 62.7675 10.2038 62.9596 9.8935C63.1617 9.56684 62.866 9.53213 61.6914 9.74353C60.8487 9.89523 59.3373 9.98826 58.3328 9.95008C57.2371 9.90842 56.5061 10.0275 56.5061 10.2479C56.5061 10.4496 56.2024 10.6148 55.8308 10.6148C55.4592 10.6148 55.057 10.7735 54.937 10.9675C54.8166 11.1616 54.5727 11.2307 54.3945 11.1206C54.2164 11.0109 54.0706 11.0956 54.0706 11.3091C54.0706 11.5379 53.8921 11.582 53.6357 11.4164C52.9023 10.9429 51.5043 11.1036 50.8655 11.735C50.5061 12.0905 50.0186 12.2429 49.6689 12.1089C49.2372 11.9433 49.1331 12.0242 49.2814 12.4095C49.4355 12.8101 49.289 12.8993 48.67 12.7813C48.1568 12.6834 47.5657 12.8959 47.0706 13.3562C46.6385 13.7574 45.9861 14.0862 45.6211 14.0862C45.2561 14.0862 44.1114 14.3316 43.0774 14.6315C41.7713 15.0103 41.1954 15.355 41.192 15.7597C41.1878 16.1954 41.1147 16.2297 40.9021 15.8951C40.5646 15.3647 39.1639 15.7882 38.461 16.6328C38.2157 16.9278 37.8 17.0868 37.5369 16.9861C37.2742 16.8855 36.5102 17.3506 35.8394 18.0199C35.0642 18.7937 34.3913 19.1772 33.9926 19.0731C33.6474 18.9832 33.0204 19.2304 32.5987 19.6219C32.1771 20.0138 31.6218 20.3346 31.365 20.3346C30.777 20.3346 26.6877 22.9499 25.5799 24.0344C25.1231 24.4815 24.6144 24.8473 24.4492 24.8473C24.2839 24.8473 23.8691 25.1261 23.5271 25.4673C23.1855 25.8082 22.3243 26.5296 21.6135 27.0704C20.903 27.6112 20.3213 28.343 20.3213 28.696C20.3213 29.1053 20.1439 29.2702 19.8318 29.1508C19.1923 28.906 15.0084 32.989 14.371 34.4803C14.0968 35.1218 13.6337 35.6085 13.2976 35.6085C12.552 35.6085 11.623 36.9033 11.623 37.9423C11.623 38.3769 11.4644 38.7327 11.2702 38.7327C10.6185 38.7327 8.86183 40.9783 8.64159 42.0933C8.52155 42.7004 8.19137 43.2861 7.9078 43.3947C7.53378 43.5377 7.45515 43.8776 7.6218 44.6333C7.81073 45.4914 7.75437 45.6375 7.30136 45.4643C6.94577 45.3282 6.75198 45.4445 6.75198 45.7944C6.75198 46.0919 6.53208 46.4599 6.26313 46.6126C5.99453 46.7654 5.72036 47.2028 5.65425 47.5846C5.58815 47.9665 5.33833 48.4854 5.0993 48.7375C4.85993 48.9898 4.66439 49.4196 4.66439 49.6921C4.66439 49.9649 4.49843 50.1881 4.29593 50.1881C4.08752 50.1881 4.04612 50.3766 4.20025 50.622C4.70614 51.427 4.18355 53.0294 2.58689 55.5687C2.18573 56.2064 1.922 57.2849 1.90634 58.351C1.89138 59.3851 1.59842 60.6174 1.18508 61.387C0.415801 62.8189 0.294025 64.557 0.858718 66.0397C1.11758 66.7187 1.11827 67.0463 0.861501 67.1317C0.605076 67.2171 0.605771 67.4605 0.863936 67.9423C1.12697 68.4325 1.1228 68.7636 0.849323 69.0924C0.563672 69.4357 0.596377 69.6849 0.976666 70.0643C1.35835 70.4455 1.38792 70.6749 1.09322 70.969C0.798177 71.2633 0.802701 71.3633 1.11132 71.3633C1.33886 71.3633 1.62486 71.9881 1.74733 72.7518C1.88164 73.5895 2.15928 74.1404 2.44737 74.1404C2.78104 74.1404 2.92473 74.61 2.92473 75.7025C2.92473 76.9629 3.04233 77.2625 3.53361 77.2535C4.38361 77.2382 5.53735 76.3398 4.95561 76.1465C4.68248 76.0555 4.54679 75.5116 4.60002 74.7229C4.64734 74.0206 4.52487 73.4461 4.32724 73.4461C3.84258 73.4461 3.87076 70.5687 4.36621 69.4836C4.68283 68.7907 4.65152 68.3807 4.21347 67.4785C3.83944 66.7079 3.78204 66.2712 4.03429 66.1157C4.23852 65.9897 4.3095 65.7317 4.1919 65.5419C4.07465 65.3523 4.38083 64.6056 4.87245 63.8826C5.6292 62.77 5.70679 62.4374 5.378 61.7171C5.05407 61.0079 5.0753 60.8989 5.50499 61.0635C5.97331 61.243 6.4792 60.4713 6.60376 59.3872C6.62568 59.1963 6.82435 58.6002 7.04563 58.0629C7.26692 57.5255 7.44784 56.8746 7.44784 56.6164C7.44784 56.3584 7.64372 56.0679 7.88275 55.971C8.21677 55.836 8.22129 55.7267 7.90259 55.5C7.60684 55.29 7.8337 54.8671 8.69135 54.0306C9.51038 53.2318 9.83117 52.6538 9.69443 52.2241C9.57509 51.8492 9.77063 51.2958 10.1753 50.8626C11.2441 49.7178 11.3666 48.3882 10.4686 47.679C9.81586 47.1635 9.79464 47.0782 10.3183 47.0716C10.653 47.0674 10.9272 46.8265 10.9272 46.5366C10.9272 46.1475 11.155 46.0663 11.797 46.227C12.3248 46.3592 12.6839 46.2936 12.7103 46.06C12.7343 45.8486 12.7928 45.5192 12.8408 45.3282C12.8888 45.1373 12.9472 44.8249 12.9712 44.634C12.9953 44.4431 13.2496 44.2868 13.5366 44.2868C13.8237 44.2868 14.0585 44.1213 14.0585 43.9192C14.0585 43.7172 13.9166 43.6391 13.743 43.746C13.5697 43.8533 13.5067 43.6387 13.6034 43.2701C13.7002 42.9011 13.9594 42.6623 14.18 42.739C14.6848 42.9153 15.7206 42.1454 15.8636 41.4872C15.9234 41.2133 16.2589 40.7763 16.6089 40.5159C17.0678 40.175 17.1833 39.7946 17.0219 39.1538C16.8385 38.4248 16.8848 38.3359 17.2772 38.6612C17.6568 38.9754 18.2052 38.6445 19.9121 37.0727C21.0979 35.981 22.0665 34.8927 22.0644 34.6539C22.0627 34.4154 22.1873 34.22 22.3417 34.22C22.7892 34.22 25.8882 31.2259 25.8882 30.7934C25.8882 30.5778 26.2285 30.062 26.6446 29.6468C27.1453 29.1473 27.329 29.0789 27.1884 29.4448C26.8088 30.4313 27.8349 30.3616 28.9465 29.325C29.5429 28.7689 30.3904 28.159 30.8299 27.9698C32.0139 27.4606 32.9849 26.8128 33.2991 26.3227C33.4522 26.0842 33.8436 25.8884 34.169 25.8884C34.4943 25.888 35.2152 25.4975 35.7715 25.0206C36.3275 24.5433 37.0711 24.1531 37.4242 24.1531C37.777 24.1531 38.0658 23.9188 38.0658 23.6324C38.0658 23.3033 38.3981 23.1117 38.969 23.1117C39.4655 23.1117 40.2877 22.8784 40.7957 22.593C41.3036 22.3081 42.4626 21.7669 43.3717 21.3906C44.2809 21.0143 45.0244 20.5446 45.0244 20.3471C45.0244 20.1492 45.3209 19.9875 45.683 19.9875C46.0452 19.9875 46.4307 19.7559 46.5397 19.4727C46.6486 19.1894 46.9516 19.0394 47.2129 19.1398C47.4742 19.2397 48.1168 19.1589 48.6412 18.9599C49.3962 18.6736 49.5538 18.4361 49.4 17.8175C49.2935 17.3881 49.296 17.2323 49.4059 17.4707C49.6442 17.989 50.8091 18.0484 51.1132 17.5575C51.2315 17.3666 51.6713 17.1979 52.0906 17.183C52.5098 17.168 52.6573 17.0767 52.418 16.9806C51.8122 16.7365 51.8731 16.169 52.5049 16.169C52.792 16.169 53.0268 16.0176 53.0268 15.8326C53.0268 15.6479 53.2617 15.5865 53.5487 15.6962C54.1625 15.9312 54.255 16.8633 53.6646 16.8633C53.4416 16.8633 53.3622 16.9664 53.4885 17.0927C53.6148 17.2187 54.0324 17.0382 54.4165 16.6918C54.8114 16.3349 55.1144 16.2353 55.1144 16.4623C55.1144 16.9535 56.3823 16.9972 56.6801 16.5161C56.7984 16.3252 57.1989 16.169 57.5705 16.169C58.0687 16.169 58.2531 15.9184 58.2733 15.2144L58.3008 14.2597L58.6334 15.164C58.9013 15.8923 59.1382 16.0353 59.8522 15.8989C60.3397 15.8062 60.8201 15.5174 60.9203 15.2571C61.0202 14.9971 61.2391 14.869 61.4064 14.9721C61.5738 15.0752 62.0271 14.9908 62.4137 14.7843C62.8959 14.5267 63.1168 14.5232 63.1168 14.7725C63.1168 15.2217 65.973 14.8297 66.2962 14.3361C66.4184 14.1497 66.7165 14.1195 66.959 14.2688C67.2426 14.4437 67.3129 14.4007 67.1563 14.148C66.8317 13.6241 70.3305 13.8546 70.8698 14.3927C71.43 14.9516 72.6268 14.8881 72.4049 14.3111C72.2772 13.9789 72.52 13.8522 73.2368 13.8772C73.7935 13.8966 74.2492 14.0952 74.2499 14.3181C74.2503 14.5413 74.3387 14.9523 74.4458 15.2314C74.5773 15.573 74.2927 15.8604 73.576 16.1096C72.4292 16.5085 72.274 16.8351 72.9243 17.4839C73.243 17.8019 73.0861 17.946 72.2361 18.1157C71.6304 18.2365 70.9898 18.5118 70.8131 18.7277C70.2446 19.4196 70.1882 23.1117 70.7459 23.1117C71.3266 23.1117 72.091 21.1615 71.7494 20.5519C71.3287 19.8024 71.7942 19.8264 72.3485 20.5828C72.7584 21.142 72.8624 21.1368 74.0635 20.496C74.9329 20.0322 75.4054 19.5022 75.5397 18.8402C75.6601 18.2466 75.9089 17.9324 76.1771 18.0352C76.7446 18.2525 77.071 17.0389 76.5776 16.5467C76.1239 16.094 77.1016 15.2758 78.4258 14.9998C79.4936 14.7773 80.3495 13.1635 79.7695 12.4665C79.4853 12.1245 79.4929 12.0034 79.7984 12.0034C80.0479 12.0034 80.1282 11.7392 80.0009 11.3383C79.8843 10.9724 79.9522 10.5728 80.1512 10.45C80.7197 10.0997 80.5746 9.29816 79.9525 9.35162C79.3019 9.40751 78.4971 8.34528 78.892 7.95128C79.0392 7.80445 79.305 7.91414 79.4832 8.19497C79.7159 8.56224 79.8085 8.57994 79.8123 8.2578C79.8235 7.31186 78.2602 5.73726 76.9648 5.38908C76.1991 5.18358 75.6424 4.82048 75.6424 4.52646C75.6424 3.9634 75.0975 3.84191 74.791 4.33692C74.6828 4.51153 74.791 4.73335 75.0314 4.8302C75.3282 4.94961 75.2979 5.01453 74.9371 5.03327C74.6445 5.0482 74.0575 4.81736 73.6324 4.52021C73.138 4.17516 72.8589 4.12274 72.8589 4.3758C72.8589 4.59345 72.6634 4.70315 72.424 4.61984C72.185 4.53618 72.0301 4.23174 72.0806 3.94292C72.1912 3.30836 71.6502 2.85119 70.223 2.37318C69.349 2.08055 69.0814 2.11873 68.7648 2.5832C68.4197 3.08863 68.3744 3.07266 68.3563 2.43983C68.3153 1.01554 66.7632 0.378205 65.8905 1.42724C65.4974 1.90004 65.3603 1.87748 64.6669 1.22764C64.2375 0.824966 63.7981 0.637513 63.6909 0.81108ZM62.1228 1.8983C61.8326 2.08194 61.785 2.27946 61.9993 2.41172C62.1913 2.53009 62.4377 2.39332 62.5476 2.10797C62.778 1.50847 62.7564 1.49806 62.1228 1.8983ZM66.1306 11.743C66.0342 11.9819 65.9553 11.7864 65.9553 11.3091C65.9553 10.8318 66.0342 10.6367 66.1306 10.8752C66.2273 11.114 66.2273 11.5045 66.1306 11.743ZM60.6142 13.5745C60.507 13.6814 60.3125 13.4888 60.1817 13.1465C59.9931 12.6518 60.0328 12.6119 60.3765 12.9521C60.6145 13.1878 60.7213 13.4679 60.6142 13.5745ZM49.3255 16.3426C49.2152 16.6289 49.0635 16.8633 48.9884 16.8633C48.9132 16.8633 48.8517 16.6289 48.8517 16.3426C48.8517 16.0562 49.0034 15.8219 49.1888 15.8219C49.3739 15.8219 49.4355 16.0562 49.3255 16.3426ZM51.1769 16.5814C51.0659 16.858 50.9834 16.7758 50.9667 16.3714C50.9518 16.0055 51.0339 15.8007 51.1494 15.9159C51.2649 16.0312 51.2774 16.3308 51.1769 16.5814ZM4.58471 60.8844C4.79347 61.5089 4.0743 61.3776 3.83144 60.7466C3.70166 60.4088 3.77925 60.2498 4.03359 60.3345C4.26079 60.4102 4.50886 60.6573 4.58471 60.8844Z"
        fill="#E8E8E8" />
</svg>