<svg xmlns="http://www.w3.org/2000/svg" width="182" height="36" viewBox="0 0 182 36" fill="none">
    <path
        d="M10.8525 21.3196C13.5453 18.6268 17.2848 18.0023 17.2848 18.0023C17.2848 18.0023 16.6603 21.7427 13.9684 24.4356C11.2755 27.1275 7.53516 27.752 7.53516 27.752C7.53516 27.752 8.1596 24.0116 10.8525 21.3196Z"
        fill="#DC8427" />
    <path
        d="M6.13853 26.1411C6.76384 26.1411 7.27119 25.6338 7.27119 25.0084C7.27119 24.3831 6.76384 23.8758 6.13853 23.8758C5.51232 23.8758 5.00586 24.3831 5.00586 25.0084C5.00586 25.6338 5.51232 26.1411 6.13853 26.1411Z"
        fill="#DC8427" />
    <path
        d="M3.65838 24.0093C4.19677 24.0093 4.63316 23.5729 4.63316 23.0345C4.63316 22.4961 4.19677 22.0588 3.65838 22.0588C3.11998 22.0588 2.68359 22.4961 2.68359 23.0345C2.68359 23.5729 3.11998 24.0093 3.65838 24.0093Z"
        fill="#DC8427" />
    <path
        d="M1.85511 21.6376C2.24006 21.6376 2.55228 21.3254 2.55228 20.9404C2.55228 20.5546 2.24006 20.2424 1.85511 20.2424C1.47016 20.2424 1.15796 20.5546 1.15796 20.9404C1.15796 21.3254 1.47016 21.6376 1.85511 21.6376Z"
        fill="#DC8427" />
    <path
        d="M6.13853 9.8211C6.76384 9.8211 7.27119 10.3284 7.27119 10.9538C7.27119 11.5791 6.76384 12.0864 6.13853 12.0864C5.51232 12.0864 5.00586 11.5791 5.00586 10.9538C5.00586 10.3284 5.51232 9.8211 6.13853 9.8211Z"
        fill="#DC8427" />
    <path
        d="M3.65838 11.9535C4.19677 11.9535 4.63316 12.3899 4.63316 12.9283C4.63316 13.4667 4.19677 13.9031 3.65838 13.9031C3.11998 13.9031 2.68359 13.4667 2.68359 12.9283C2.68359 12.3899 3.11998 11.9535 3.65838 11.9535Z"
        fill="#DC8427" />
    <path
        d="M1.85511 14.3255C2.24006 14.3255 2.55228 14.6377 2.55228 15.0226C2.55228 15.4085 2.24006 15.7207 1.85511 15.7207C1.47016 15.7207 1.15796 15.4085 1.15796 15.0226C1.15796 14.6377 1.47016 14.3255 1.85511 14.3255Z"
        fill="#DC8427" />
    <path
        d="M8.88634 13.5947C4.82578 14.3354 0.928408 17.6216 0.5 17.9924C0.928408 18.3631 4.82578 21.6494 8.88634 22.3909C9.46199 21.4906 10.153 20.5921 10.9823 19.7619C11.6156 19.1295 12.2897 18.5804 12.9735 18.0988C11.9012 18.1662 10.3126 18.2416 8.53688 18.2416C5.30829 18.2425 2.69084 17.9924 2.69084 17.9924C2.69084 17.9924 5.30829 17.7431 8.53688 17.7431C10.3126 17.7431 11.9012 17.8185 12.9735 17.8859C12.2897 17.4043 11.6156 16.8553 10.9823 16.222C10.153 15.3926 9.46199 14.4941 8.88634 13.5947"
        fill="#DC8427" />
    <path
        d="M10.8525 14.6756C13.5453 17.3676 17.2848 17.9929 17.2848 17.9929C17.2848 17.9929 16.6603 14.2517 13.9684 11.5588C11.2755 8.86684 7.53516 8.24241 7.53516 8.24241C7.53516 8.24241 8.1596 11.9828 10.8525 14.6756Z"
        fill="#DC8427" />
    <path
        d="M31.2891 10.7605C33.0019 14.2197 36.391 16.0327 36.391 16.0327C36.391 16.0327 37.0048 12.2382 35.2929 8.77905C33.5802 5.31985 30.191 3.50687 30.191 3.50687C30.191 3.50687 29.5773 7.30135 31.2891 10.7605Z"
        fill="#DC8427" />
    <path
        d="M48.0283 28.6446C50.9571 26.9327 52.3417 23.8478 52.3417 23.8478C52.3417 23.8478 48.9765 23.5383 46.0477 25.2502C43.1189 26.9611 41.7344 30.046 41.7344 30.046C41.7344 30.046 45.0996 30.3556 48.0283 28.6446Z"
        fill="#DC8427" />
    <path
        d="M79.7444 29.0889C81.0811 26.1823 80.4806 23.0504 80.4806 23.0504C80.4806 23.0504 77.7132 24.631 76.3765 27.5376C75.0399 30.4442 75.6404 33.5752 75.6404 33.5752C75.6404 33.5752 78.4086 31.9955 79.7444 29.0889Z"
        fill="#DC8427" />
    <path
        d="M62.7679 32.4512C65.4138 29.6439 65.9335 25.8353 65.9335 25.8353C65.9335 25.8353 62.1639 26.5768 59.5181 29.3841C56.8722 32.1913 56.3516 36 56.3516 36C56.3516 36 60.1221 35.2576 62.7679 32.4512"
        fill="#DC8427" />
    <path
        d="M35.7969 15.5505C35.7969 15.5505 45.8126 24.6278 62.1302 25.9246C78.4479 27.2213 91.1245 18.0003 91.1245 18.0003C91.1245 18.0003 78.4319 24.5551 64.2155 24.3395C51.8289 24.1515 39.4202 17.3396 36.4399 15.6614C35.9991 15.413 35.7969 15.5505 35.7969 15.5505"
        fill="#DC8427" />
    <path
        d="M31.2891 25.239C33.001 21.7798 36.3901 19.9668 36.3901 19.9668C36.3901 19.9668 37.0039 23.7613 35.292 27.2205C33.5802 30.6797 30.191 32.4927 30.191 32.4927C30.191 32.4927 29.5773 28.6982 31.2891 25.239Z"
        fill="#DC8427" />
    <path
        d="M48.0283 7.35524C50.9571 9.0671 52.3417 12.1511 52.3417 12.1511C52.3417 12.1511 48.9765 12.4616 46.0477 10.7497C43.118 9.03872 41.7344 5.95382 41.7344 5.95382C41.7344 5.95382 45.0987 5.64427 48.0283 7.35524Z"
        fill="#DC8427" />
    <path
        d="M79.7444 6.9107C81.0811 9.81732 80.4806 12.9492 80.4806 12.9492C80.4806 12.9492 77.7132 11.3686 76.3765 8.46202C75.0399 5.5554 75.6404 2.4235 75.6404 2.4235C75.6404 2.4235 78.4077 4.00409 79.7444 6.9107Z"
        fill="#DC8427" />
    <path
        d="M62.767 3.54934C65.4129 6.35661 65.9327 10.1653 65.9327 10.1653C65.9327 10.1653 62.163 9.42377 59.5172 6.6165C56.8713 3.80923 56.3516 0.000552935 56.3516 0.000552935C56.3516 0.000552935 60.1212 0.742951 62.767 3.54934Z"
        fill="#DC8427" />
    <path
        d="M35.7969 20.4489C35.7969 20.4489 45.8117 11.3725 62.1293 10.0757C78.4479 8.77894 91.1236 17.9999 91.1236 17.9999C91.1236 17.9999 78.4319 11.4443 64.2146 11.6607C51.7526 11.8505 39.3031 18.7219 36.4195 20.3513C36.0133 20.5801 35.7969 20.4489 35.7969 20.4489"
        fill="#DC8427" />
    <path d="M16.9805 17.322V18.6294H91.1235V17.322H16.9805Z" fill="#DC8427" />
    <path
        d="M93.8253 17.9755C93.8253 19.4195 92.6545 20.5903 91.2105 20.5903C89.7665 20.5903 88.5957 19.4195 88.5957 17.9755C88.5957 16.5315 89.7665 15.3616 91.2105 15.3616C92.6545 15.3616 93.8253 16.5315 93.8253 17.9755Z"
        fill="#DC8427" />
    <path
        d="M171.394 21.3196C168.701 18.6268 164.961 18.0023 164.961 18.0023C164.961 18.0023 165.585 21.7427 168.277 24.4356C170.97 27.1275 174.711 27.752 174.711 27.752C174.711 27.752 174.086 24.0116 171.394 21.3196Z"
        fill="#DC8427" />
    <path
        d="M176.109 26.1411C175.484 26.1411 174.977 25.6346 174.977 25.0084C174.977 24.3831 175.484 23.8758 176.109 23.8758C176.735 23.8758 177.243 24.3831 177.243 25.0084C177.243 25.6346 176.735 26.1411 176.109 26.1411Z"
        fill="#DC8427" />
    <path
        d="M178.589 24.0103C178.052 24.0103 177.615 23.573 177.615 23.0346C177.615 22.4962 178.052 22.0598 178.589 22.0598C179.128 22.0598 179.565 22.4962 179.565 23.0346C179.565 23.573 179.128 24.0103 178.589 24.0103Z"
        fill="#DC8427" />
    <path
        d="M180.391 21.6375C180.006 21.6375 179.693 21.3252 179.693 20.9403C179.693 20.5553 180.006 20.2431 180.391 20.2431C180.776 20.2431 181.089 20.5553 181.089 20.9403C181.089 21.3252 180.776 21.6375 180.391 21.6375Z"
        fill="#DC8427" />
    <path
        d="M176.109 9.8211C175.484 9.8211 174.977 10.3284 174.977 10.9538C174.977 11.5791 175.484 12.0864 176.109 12.0864C176.735 12.0864 177.243 11.5791 177.243 10.9538C177.243 10.3284 176.735 9.8211 176.109 9.8211Z"
        fill="#DC8427" />
    <path
        d="M178.589 11.9535C178.052 11.9535 177.615 12.3908 177.615 12.9292C177.615 13.4667 178.052 13.9031 178.589 13.9031C179.128 13.9031 179.565 13.4667 179.565 12.9292C179.565 12.3908 179.128 11.9535 178.589 11.9535Z"
        fill="#DC8427" />
    <path
        d="M180.391 14.3264C180.006 14.3264 179.693 14.6386 179.693 15.0235C179.693 15.4085 180.006 15.7207 180.391 15.7207C180.776 15.7207 181.089 15.4085 181.089 15.0235C181.089 14.6386 180.776 14.3264 180.391 14.3264Z"
        fill="#DC8427" />
    <path
        d="M173.361 13.5947C177.421 14.3363 181.318 17.6225 181.748 17.9933C181.318 18.364 177.421 21.6502 173.361 22.3909C172.785 21.4906 172.094 20.5921 171.265 19.7628C170.632 19.1295 169.958 18.5804 169.273 18.0988C170.346 18.1671 171.935 18.2425 173.71 18.2425C176.939 18.2425 179.556 17.9933 179.556 17.9933C179.556 17.9933 176.939 17.7431 173.71 17.7431C171.935 17.7431 170.346 17.8185 169.273 17.8859C169.958 17.4043 170.632 16.8553 171.265 16.2228C172.094 15.3935 172.785 14.4941 173.361 13.5947"
        fill="#DC8427" />
    <path
        d="M171.394 14.6756C168.701 17.3676 164.961 17.9929 164.961 17.9929C164.961 17.9929 165.585 14.2517 168.277 11.5597C170.97 8.86684 174.711 8.24241 174.711 8.24241C174.711 8.24241 174.086 11.9837 171.394 14.6756Z"
        fill="#DC8427" />
    <path
        d="M150.958 10.7605C149.246 14.2197 145.857 16.0327 145.857 16.0327C145.857 16.0327 145.243 12.2382 146.955 8.77905C148.667 5.32074 152.056 3.50687 152.056 3.50687C152.056 3.50687 152.67 7.30135 150.958 10.7605Z"
        fill="#DC8427" />
    <path
        d="M134.22 28.6446C131.29 26.9336 129.906 23.8487 129.906 23.8487C129.906 23.8487 133.271 23.5383 136.199 25.2502C139.129 26.9611 140.514 30.046 140.514 30.046C140.514 30.046 137.148 30.3556 134.22 28.6446"
        fill="#DC8427" />
    <path
        d="M102.503 29.0887C101.167 26.1821 101.767 23.0511 101.767 23.0511C101.767 23.0511 104.535 24.6308 105.871 27.5374C107.208 30.444 106.608 33.5759 106.608 33.5759C106.608 33.5759 103.84 31.9953 102.503 29.0887Z"
        fill="#DC8427" />
    <path
        d="M119.481 32.4512C116.835 29.6439 116.314 25.8353 116.314 25.8353C116.314 25.8353 120.084 26.5777 122.731 29.3841C125.377 32.1913 125.896 36 125.896 36C125.896 36 122.127 35.2585 119.481 32.4512"
        fill="#DC8427" />
    <path
        d="M146.45 15.5505C146.45 15.5505 136.435 24.6278 120.116 25.9246C103.799 27.2213 91.123 18.0003 91.123 18.0003C91.123 18.0003 103.815 24.556 118.032 24.3395C130.498 24.1497 142.952 17.2739 145.831 15.6481C146.235 15.4193 146.45 15.5505 146.45 15.5505"
        fill="#DC8427" />
    <path
        d="M150.958 25.239C149.246 21.7807 145.857 19.9677 145.857 19.9677C145.857 19.9677 145.244 23.7613 146.955 27.2205C148.667 30.6797 152.056 32.4927 152.056 32.4927C152.056 32.4927 152.671 28.6982 150.958 25.239Z"
        fill="#DC8427" />
    <path
        d="M134.22 7.35613C131.29 9.0671 129.906 12.1511 129.906 12.1511C129.906 12.1511 133.271 12.4616 136.199 10.7497C139.129 9.03872 140.514 5.95382 140.514 5.95382C140.514 5.95382 137.149 5.64427 134.22 7.35613"
        fill="#DC8427" />
    <path
        d="M102.505 6.9107C101.169 9.81732 101.769 12.9492 101.769 12.9492C101.769 12.9492 104.537 11.3686 105.873 8.46202C107.21 5.5554 106.61 2.42439 106.61 2.42439C106.61 2.42439 103.842 4.00409 102.505 6.9107Z"
        fill="#DC8427" />
    <path
        d="M119.481 3.54894C116.834 6.35621 116.314 10.1658 116.314 10.1658C116.314 10.1658 120.084 9.42337 122.73 6.6161C125.376 3.80971 125.895 0.00015423 125.895 0.00015423C125.895 0.00015423 122.126 0.742552 119.481 3.54894Z"
        fill="#DC8427" />
    <path
        d="M146.451 20.4498C146.451 20.4498 136.436 11.3725 120.117 10.0758C103.8 8.779 91.123 18 91.123 18C91.123 18 103.815 11.4452 118.032 11.6608C130.505 11.8506 142.965 18.7326 145.835 20.3549C146.237 20.582 146.451 20.4498 146.451 20.4498"
        fill="#DC8427" />
    <path d="M165.266 17.322V18.6294H91.123V17.322H165.266Z" fill="#DC8427" />
</svg>