<?xml version="1.0" encoding="UTF-8"?>
<svg xmlns="http://www.w3.org/2000/svg" id="Layer_1" data-name="Layer 1" viewBox="0 0 24 24">
  <path d="m20.5,0H5C2.794,0,1,1.794,1,4v16c0,2.206,1.794,4,4,4h18V2.5c0-1.379-1.122-2.5-2.5-2.5ZM5,3h15v13H5c-.347,0-.678.058-1,.142V4c0-.552.449-1,1-1Zm0,18c-.551,0-1-.448-1-1s.449-1,1-1h15v2H5Zm1-13.5c0-1.381,1.119-2.5,2.5-2.5.682,0,1.299.275,1.75.718.451-.443,1.068-.718,1.75-.718s1.299.275,1.75.718c.451-.443,1.068-.718,1.75-.718,1.381,0,2.5,1.119,2.5,2.5,0,1.209-.859,2.218-2,2.45v4.05h-8v-4.05c-1.141-.232-2-1.24-2-2.45Z"/>
</svg>
